<?xml version="1.0" encoding="UTF-8"?>
<svg id="Layer_2" data-name="Layer 2" xmlns="http://www.w3.org/2000/svg" viewBox="0 0 339.94 269.62">
  <defs>
    <style>
      .cls-1 {
        fill: #fff2f1;
        stroke-width: 0px;
      }
    </style>
  </defs>
  <g id="Layer_1-2" data-name="Layer 1">
    <g>
      <path class="cls-1" d="M254.39,75.11c-4.17.33-7.63,2.34-10.42,5.5-3.78,4.29-8.51,6.81-13.25,9.65-10.07,6.03-20.62,11.07-30.77,17.37-.15-.42-.5-.87-.4-1.16,2.26-6.9,1.47-13.58-1.2-20.12-1.25-3.05.53-5.54,1.47-7.97,1.57-4.06,1.95-7.98.45-11.98-1.73-4.58-1.36-9.03.43-13.39,1.56-3.8.68-7.42-.26-11.12-.48-1.89-1.27-2.23-2.48-.81-1.97,2.32-4.38,4.45-5.64,7.17-5.98,12.91-13.76,24.68-20.23,37.27-1.48,2.88-2.81,5.89-3.79,9-.99,3.11-1.95,2.56-3.67.69-2.85-3.09-5.69-6.18-5.78-10.84-.1-5.25-2.48-9.06-6.3-11.96-2.96-2.25-4.23-5.34-5.19-8.98-2.41-9.17-4.58-18.56-12.54-25.22-1.17,5.8-.08,11.25.83,16.57,1.39,8.16,1.27,16.21-1.22,23.96-2.59,8.05-1.38,15.97-.43,23.96.19,1.61.71,3.17.19,5.05-5.48-1.92-10.48-4.3-14.11-9.15-2.2-2.93-5.01-4.69-8.47-5.58-8.93-2.28-16.81-6.49-22.26-14.81-.52-.8-1.16-1.75-1.95-2.06-2.4-.94-5.21-3.21-7.31-1.66-1.7,1.25.32,4.26.99,6.31,2.05,6.25,4.68,12.26,9.64,16.58,7.42,6.48,12.29,14.63,15.01,24.42.96,3.45,2.59,6.69,4.08,10.44-7.82,2.85-15.8,2.15-23.69,1.72-7.87-.43-15.71-1.48-23.58-2.13-5.25-.44-10.52-.71-16.45,1.36,16.84,10.5,33.28,20.75,49.85,31.08-1.39,1.28-2.84.65-4.13.65-28.65.05-57.29.03-85.94.04-5.97,0-6.05,0-5.76-6.15,1.74-37.94,14.66-71.05,38.63-98.96C70.21,23.15,109.78,3.87,156.06.52c50.95-3.69,96.07,12.06,133.81,49.1,27.15,26.65,43.3,59.83,47.26,99.33.4,3.94.44,7.92.87,11.85.37,3.37-.96,4.22-3.92,4.2-14.4-.12-28.8-.06-43.2-.06-17.47,0-34.93,0-52.71-.7,19.18-6.11,32.76-22.31,50.82-30.83-9.68,2.65-19.05-2.01-28.45-.1-2.55.52-5.32.67-7.86.2-8.31-1.54-16.63-1.55-24.99-.85-2.49.21-4.19.09-2.26-3.25,4.04-7.02,7.04-14.72,12.04-21.13,2.61-3.35,4.4-7.12,5.58-11.29,2.3-8.15,6.15-15.42,11.25-21.94.16-.18.97-.18.16-.64-.02.24-.05.47-.07.71ZM280.34,54.23l.13.13-.12-.13c-.57-.48-.87-1.58-1.91-.93-.94-4.07-3.59-6.22-6.98-7.53,1.96,2.92,3.73,6.06,7.03,7.45.32.96,1.13.89,1.85,1.01ZM294.33,59.13c-.07.58-.03,1.01.64.49-.24-.14-.48-.27-.72-.41,0-.91-.68-1.24-1.25-1.66-3.61-3.54-5.84-9.08-11.77-9.23-.06-.24-.12-.48-.18-.72l-.44.33c.24.1.48.2.71.3,3,4.2,6.46,7.82,11.03,10.07.45.86,1.13,1.09,1.99.83ZM59.2,50.29c3.78-1.72,6.39-4.99,9.26-7.93l.14-.2-.09.26c-4.59.65-7.46,3.58-9.25,7.94-.39.04-.77.07-1.16.11.03.13.05.26.08.4l1.03-.57ZM327.8,142.4c.08.21.16.42.23.63-.09-.19-.18-.38-.27-.57-.18-4.44-.46-8.85-3.43-12.39,1.04,4.15.35,8.86,3.47,12.33ZM32.74,76.58c4.3-3.38,7.06-8.09,10.09-12.57-5.13,2.48-8.16,6.98-10.77,11.89-.45.58-.9,1.16-1.35,1.74,1.19.76,1.43-.54,2.03-1.06ZM296.1,67.17c0-.5.05-1.07-.66-.49.25.14.49.27.74.41,2.92,5.33,6.45,10.06,11.4,13.35-.68-1.75-1.49-3.37-2.63-4.67-2.74-3.1-4.1-7.85-8.85-8.6ZM7.97,129.51c4.04-5.57,3.85-12.45,5.36-18.81-4.16,5.56-4.57,12.26-5.3,18.87-.07.26-.15.52-.22.78.05-.28.1-.57.15-.85ZM57.29,46.29c-6.31,1.36-9.05,7.16-12.92,11.55,5.04-2.95,9.96-6.05,12.87-11.63.41-.03.81-.06,1.22-.09-.06-.18-.11-.36-.17-.54-.33.24-.67.47-1,.71ZM16.4,103.81c4.44-5.08,7.52-10.99,9.65-17.48-5.27,4.57-7.48,11.02-9.67,17.48l-.09.13.11-.14ZM244.04,121.63c.74-.08,1.56.04,2.19-.27,10.07-4.99,20.29-9.71,30.13-15.19,7.53-4.19,14.32-9.75,20.68-15.87-6.73,2.49-13.25,5.4-19.84,8.1-12.63,5.18-24.6,11.4-33.07,23.3-.22.14-.44.28-.66.42.17.07.35.15.52.22.02-.24.03-.48.05-.72ZM37.71,87.05c-.01-.14,0-.3-.05-.42-.03-.08-.17-.1-.26-.15.13.17.25.33.38.5,12.57,15.46,30.09,22.43,47.47,32.06-4.31-5.64-7.07-11.43-11.48-14.57-11.04-7.83-23.35-13.22-36.05-17.43ZM74.82,157.73c-6.33-1.86-11.15-7.5-17.84-7.99-12.3-.91-24.51.65-37.24,1.88,13.53,6.14,29.08,7.94,55.07,6.11ZM260.89,158.9c19.29-.69,37.93,1.95,56.19-7.03-10.34-.71-19.75-1.18-29.13-2.04-9.93-.91-17.97,4.01-27.07,9.07ZM94.98,35.65c4.23,19.32,16.06,33.86,26.78,49.35-.15-22.13-15.63-34.33-26.78-49.35ZM213.63,83.59c9.97-16.33,20.79-31.12,25.3-49.65-9.73,15.43-23.75,28.33-25.3,49.65ZM167.45,66.71c.88-16.83,4.37-33.62-.84-50.24-1.85,16.75-8.54,33.6.84,50.24ZM303.4,116.18c-10.36.5-21.62-3.85-30.67,6.2,10.65-.92,21.28.24,30.67-6.2ZM32.67,115.72c10.56,6.12,20.81,5.46,31.51,5.99-9.43-9.11-20.03-6.57-31.51-5.99ZM277.53,71.8c-6.77,6.01-15.53,8.33-15.57,19.69,6.44-5.27,12.6-10.07,15.57-19.69ZM57.03,68.86c2.68,9.04,8.81,13.69,15.05,19.29-2.34-10.6-4.75-13.67-15.05-19.29ZM152.57,8.68c-7.45-1.29-14.89-4.42-22.84-.13,7.9,1.3,15.37.78,22.84.13ZM65.44,40.51c6.41-4.05,14.54-5.58,18.97-14.39-7.43,4.05-12.99,9.5-18.97,14.39ZM209.66,11.03c6.8,2.34,13.25,5.21,20.46,4.46-6.51-2.62-12.52-7.64-20.46-4.46ZM252.05,26c4.79,8.64,12.43,10.84,19.21,14.42-5.94-4.9-11.6-10.25-19.21-14.42ZM203.85,9.53c-7.84-4.51-15.28-2.72-22.67-1.82,7.27,1.39,14.56,2.18,22.67,1.82ZM156.58,6.02c7.79,2.84,14.93.84,22.65.38-7.7-3.43-14.83-1.09-22.65-.38ZM323.02,111.35c1.53,8.23,2.76,15.35,6.37,21.71-1.66-6.98-1.12-14.67-6.37-21.71ZM125.82,12.13c-6.58-1.49-12.75-.26-17.13,3.2,5.84.46,11.22-1.41,17.13-3.2ZM310.38,86.52c3.4,7.08,5.82,13.17,10.58,17.77-2.53-6.01-4.01-12.69-10.58-17.77ZM333.16,157.66c-.19-5.65.88-11.52-2.35-16.64.12,5.66-.01,11.37,2.35,16.64ZM3.72,157.54c1.68-5.53,2.45-11.22,2.12-17.07-3.02,5.31-2.4,11.21-2.12,17.07ZM233.25,19.15c4.82,2.12,8.31,4.21,13.27,4.13-4.29-2.47-7.74-4.91-13.27-4.13ZM200.66,12.05c3.67,2.35,7.77,2.8,12.99,3.4-4.57-3.45-8.86-3.08-12.99-3.4ZM102.89,18.99c-5.84.2-7.73.96-11.94,4.44,4.07-.49,7.62-1.73,11.94-4.44ZM15.23,115.32c3.5-3.78,5.15-7.29,6.12-11.19-3.36,2.55-4.39,6.41-6.12,11.19Z"/>
      <path class="cls-1" d="M170.05,269.5c-54.81,0-109.61-.06-164.42.11-4.31.01-5.38-1.25-5.26-5.7.3-11.56.32-23.14,0-34.7-.13-4.68.88-6.11,5.5-6.07,29.72.25,59.45.13,89.18.13,79.73,0,159.46.06,239.2-.14,4.92-.01,5.83,1.53,5.69,6.32-.33,11.56-.29,23.14,0,34.7.1,4.24-.76,5.48-4.99,5.47-54.96-.18-109.92-.12-164.88-.12ZM73.63,239.47c.35-.04.71-.08,1.06-.13,1.5,5.82,2.94,11.65,4.53,17.45.42,1.54.05,3.96,2.73,3.73,2.23-.19,1.94-2.21,2.34-3.67,1.66-6.17,3.27-12.35,4.89-18.53.8,6.45.77,12.71.82,18.96.01,1.33-.56,3.26,1.73,3.2,2.27-.05,1.63-1.98,1.64-3.29.06-6.76.1-13.53-.02-20.29-.03-1.82,1.15-4.45-2.32-4.75-3.08-.27-3.95,1.44-4.58,4.13-1.32,5.65-2.83,11.24-4.26,16.86-2.37-6.12-4.02-12.25-5.47-18.44-.64-2.74-2.44-2.44-4.31-2.49-2.38-.07-2.25,1.62-2.25,3.33.01,7.26-.03,14.52.02,21.78,0,1.31-.61,3.24,1.72,3.18,2.26-.06,1.68-1.96,1.7-3.28.06-5.91.03-11.83.03-17.74ZM128.2,238.66c.27.09.53.18.8.28,0,5.94-.06,11.88.04,17.82.02,1.41-.87,3.62,1.7,3.74,2.73.13,1.76-2.18,1.78-3.55.09-6.77.12-13.55,0-20.31-.03-1.65,1.17-4.17-2.06-4.44-2.81-.24-4.11.72-4.76,3.83-1.21,5.84-2.93,11.56-4.77,18.59-1.93-7.48-3.63-13.63-5.07-19.86-.64-2.79-2.4-2.46-4.27-2.54-2.39-.1-2.26,1.57-2.25,3.29.02,7.27-.02,14.54.04,21.8.01,1.28-.69,3.19,1.67,3.21,2.26.02,1.84-1.75,1.85-3.15.03-6.21.01-12.43.01-18.64,2.39,6.17,4.03,12.45,5.65,18.73.36,1.41.38,3.04,2.35,3.07,1.96.02,2.04-1.56,2.41-2.99,1.61-6.3,3.26-12.59,4.89-18.89ZM184.61,237.49c3.29,7.85,6.08,14.24,8.62,20.75.95,2.44,2.54,2.37,4.44,2.32,2.68-.08,1.75-2.24,1.77-3.62.09-7.09.08-14.18,0-21.27-.01-1.28.75-3.3-1.57-3.33-2.47-.03-1.94,2.04-1.95,3.58-.04,5.67-.02,11.34-.02,17-3.44-6.07-6.13-12.27-8.63-18.55-.99-2.49-2.77-2.28-4.61-2.04-2.05.27-1.62,2.07-1.63,3.47-.03,7.25,0,14.51,0,21.76,0,1.52-.12,3.08,2.03,2.97,2.03-.1,1.5-1.72,1.51-2.9.05-6.26.02-12.52.02-20.14ZM283.53,247.29c.37,3.77-1.9,10.02.92,12.47,2.65,2.3,8.28.69,12.59.8.46.01.93.03,1.39,0,1.02-.08,2.25.27,2.32-1.55.07-1.79-.81-2.26-2.28-2.24-2.63.04-5.26.04-7.89-.02-1.14-.03-2.39.37-2.93-1.51-1.41-4.91.28-7.61,5.07-7.7.77-.02,1.55,0,2.32-.03,1.17-.07,1.55-.87,1.56-1.99.01-1.25-.62-1.76-1.72-1.76-.93,0-1.86-.07-2.78,0-2.63.19-4.63.31-4.6-3.86.03-4.06,1.87-4.15,4.59-3.96,1.7.12,3.41.07,5.11,0,1.14-.05,2.65.43,2.74-1.65.09-1.96-1.18-2.01-2.48-2.01-3.71,0-7.43.08-11.14-.04-2.37-.08-2.85,1.23-2.8,3.39.08,3.63.02,7.27.02,11.7ZM38.75,246.45c-.21,3.7.27,7.27,1.96,10.54,1.56,3.01,4.04,4.55,7.25,4.37,2.96-.16,5.45-1.52,6.66-4.55,2.73-6.85,2.76-13.8,0-20.63-1.28-3.18-3.87-4.58-7.12-4.52-3.23.06-5.62,1.55-7.05,4.69-1.46,3.2-1.89,6.6-1.7,10.11ZM165.23,244.26h.02c0-2.81.07-5.62-.03-8.42-.05-1.32.68-3.36-1.47-3.49-2.46-.15-1.91,2.03-1.95,3.57-.13,5.61.02,11.24-.4,16.82-.31,4.09-3.71,6.02-6.51,4.21-2.02-1.31-2.2-3.49-2.22-5.65-.06-5.45-.04-10.9-.03-16.35,0-1.47-.29-2.6-1.98-2.69-1.5-.08-2.31.42-2.28,2.2.12,6.44-.15,12.9.35,19.3.4,5.14,4.03,7.92,8.66,7.63,4.52-.28,7.55-3.56,7.82-8.71.15-2.8.03-5.61.03-8.42ZM321.39,231.68c-3.64-.03-6.28,1.49-7.29,5.12-1.04,3.73.07,6.9,3.26,8.95,2.25,1.44,4.74,2.47,6.93,4,2.12,1.49,2.5,3.8,1.07,6.05-1.32,2.07-3.36,2.35-5.35,1.23-1.04-.58-2.04-1.56-2.66-2.63-1.01-1.75-1.94-1.64-3.33-.57-1.55,1.18-.75,2.29-.04,3.34,2.45,3.56,5.84,4.81,9.81,4.04,3.53-.69,5.89-2.89,6.46-6.82.6-4.17-1.4-6.95-4.58-8.92-1.86-1.16-3.91-2.01-5.71-3.27-1.66-1.16-2.69-2.96-1.58-5.07,1.27-2.4,3.4-1.92,5.32-1.08.79.35,1.56,1.2,1.97,2.03.88,1.78,1.85,1.29,2.98.46,1.62-1.19.6-2.26-.15-3.29-1.84-2.51-4.25-3.78-7.1-3.57ZM14.03,247.44c.13-2.6.12-4.26.33-5.89.32-2.47.67-5.07,3.39-5.9,2.85-.87,4.38.85,5.16,3.51.49,1.68,1.44,1.33,2.53.93,1.48-.53,1.31-1.63.86-2.78-1.21-3.07-3.07-5.28-6.43-5.61-3.41-.33-6.36.76-7.8,4.07-3.08,7.09-3.16,14.41.08,21.48,1.4,3.05,4.16,4.38,7.36,4.1,2.99-.26,5.27-1.82,6.44-4.88.55-1.44,1.73-3.07-.41-4.19-2.3-1.2-2.43.84-3,2.33-.69,1.79-1.83,3.08-3.84,2.94-2.18-.16-3.38-1.72-3.82-3.72-.53-2.38-.66-4.87-.85-6.39ZM243.31,248.66c0-1.65.06-3.3-.01-4.94-.19-4.53-.84-9.36,5.98-7.86.97.21,1.82-.36,1.8-1.65-.02-1.48-.88-1.96-2.13-1.96-4.47,0-8.95-.08-13.42.02-1.35.03-3.47-.86-3.54,1.79-.07,2.79,2.17,1.92,3.41,1.78,3.24-.36,4.29.85,4.13,4.36-.27,5.92-.07,11.86-.08,17.79,0,1.39.02,2.59,1.88,2.59,1.78,0,1.98-1.06,1.97-2.52-.02-3.13,0-6.26,0-9.39ZM217.61,260.56c.99-.95,5.33.94,3.57-1.91-1.93-3.12-1.73-5.86-1.5-8.6.45-5.28-2.26-11.08,1.96-15.87.44-.49-.02-1.75-.96-1.81-1.99-.13-4.01-.2-6-.03-1.5.13-1.6,1.28-.95,2.51,3.74,7.04,2.62,15.12.97,21.71-1.25,5-.19,3.96,2.9,3.99ZM265.01,260.55c4.55.02,5.57-.98,4.16-1.99-2.98-2.12-2.01-5.06-1.73-7.45.66-5.57-2.45-11.68,1.98-16.75.62-.71.01-1.79-.76-1.9-2.28-.33-4.98-1.11-6.77.27-2.69,2.08,1.38,2.31,1.46,3.82.05.98.11,1.97.11,2.95.01,4.77.02,9.54-.01,14.31,0,1.13.13,2.49-.38,3.34-.57.93-2.73,1.06-1.8,2.73.76,1.37,2.56.45,3.74.67Z"/>
      <path class="cls-1" d="M327.83,204.01c0-7.33,0-14.65,0-21.96,0-2.91-3.56-2.31-4.16-5.02,2.99-1.26,5.98-.22,8.85-.64-4.19,12.33-.39,24.78-2.55,38.18-7.98-9.56-15.35-18.4-23.63-28.33.26,9.99-1.85,18.69,2.29,27.24-2.16.74-5.16.44-9.04-.31,4.42-3.4,4.51-7.73,4.38-12.21-.14-4.93-.07-9.87-.13-14.81-.05-4.16-1.49-7.37-5.8-8.65,2.98-1.4,5.05-.99,7.34,1.38,7.09,7.36,12.85,15.99,19.89,23.38.72.76,1.17,2.04,2.57,1.75Z"/>
      <path class="cls-1" d="M106.48,177.95c4.43-2.31,6.58-.69,9.01,2.36,6.68,8.41,13.78,16.43,20.77,24.67,2.99-8.53.8-23.22-4.6-28.51,3.6.29,6.68.67,11-.29-5.16,4.86-3.05,10.11-3.24,14.97-.23,5.89-.2,11.8-.33,17.69-.03,1.38.88,3.31-.65,4.01-1.55.7-2.29-1.24-3.17-2.29-6.09-7.25-12.16-14.52-18.22-21.79-.41-.49-.78-1.02-1.77-1.37.77,8.62-3.05,17.67,2.67,26.03-2.86.22-5.91-.75-9.37-.27,4.04-2.5,3.92-6.37,3.91-10.12-.01-6.1-.16-12.19-.21-18.29-.03-3.62-1.61-5.93-5.79-6.78Z"/>
      <path class="cls-1" d="M147.48,213.7c4.14-7.58,3.64-32.36-.77-36.88,7.46-.15,14.58-1.2,21.6,1.27,7.05,2.49,11.13,8.62,10.85,16.48-.34,9.71-4.43,15.41-11.87,17.82-6.42,2.07-12.87.58-19.81,1.3ZM154.07,196.55c.17,4.1.4,7.39.41,10.68,0,2.13.85,3.31,2.66,4.08,3.81,1.63,11.98-.24,14.64-3.48,3.88-4.71,4.7-13.78,1.72-20.13-3.1-6.6-8.35-9.37-15.08-9.48-2.88-.05-4.31,1.3-4.26,4.43.07,4.9.87,9.81-.09,13.9Z"/>
      <path class="cls-1" d="M50.03,176.24c10.41-.05,18.18,7.52,18.29,17.81.12,11.91-7.48,19.85-19.06,19.89-9.56.03-16.9-8.19-16.82-18.86.08-10.77,7.58-18.8,17.6-18.85ZM64.39,196.41c.01-10.18-8.15-19.18-16.41-18.09-9.37,1.23-14.22,12.8-9.94,23.68,2.88,7.32,9.16,11.26,15.77,9.89,6.08-1.25,10.57-7.82,10.58-15.47Z"/>
      <path class="cls-1" d="M261.61,194.87c-.73-9.04,7.3-19.6,19.44-18.77,9.17.63,16.34,8.66,16.15,19.2-.2,11.26-7.78,18.91-18.6,18.78-10.16-.13-17.1-7.97-17-19.21ZM265.48,193.16c-.03,9.86,6.71,18.79,14.28,18.92,7.81.13,13.62-6.37,13.72-15.34.11-10.01-6.8-18.53-15.01-18.53-7.46,0-12.96,6.33-12.99,14.95Z"/>
      <path class="cls-1" d="M70.36,177.31c3.63-.25,6.59-.45,9.55-.66-2.44,2.26-2.27,4.99-2.2,7.8.15,6.08-.39,12.12.24,18.25.56,5.45,6.83,8.67,11.34,9.01,4.58.35,9.96-3.88,10.56-8.57.88-6.88.09-13.83.04-20.74-.02-2.32-2.12-3.03-3.5-4.61,2.46-2.76,5.3-.03,8.69-1.47-3.07,4.42-2.56,8.62-2.49,12.71.09,4.95.31,9.88-.65,14.78-.97,4.98-3.56,8.32-8.26,9.6-4.99,1.36-9.88.78-14.41-1.68-6.24-3.39-5.53-10.12-6.1-16.04-.31-3.23-.09-6.61.4-9.83.52-3.42-.15-6.12-3.21-8.56Z"/>
      <path class="cls-1" d="M216.04,213.48c-1.37,0-2.75,0-4.12,0-2.57,0-5.91,2.73-4.86-4.11,1.21-7.9-8.76-13.58-15.68-9.81-3.54,1.93-4.92,10.17-2.25,13.33-1.4,1.41-2.92.44-4.4.24-1.33-.18-2.61,1.25-3.9.23,7.81-11.3,10.88-25.24,18.14-37.41,3.06,5.31,4.99,10.62,6.65,15.94,1.47,4.72,3.18,9.26,5.18,13.72,1.3,2.9,2.09,6.16,5.25,7.86ZM192.19,195.91c2.75,1.17,5.56.64,8.31.7,2.02.04,2.31-1.16,1.62-2.93-1.27-3.27-2.53-6.54-3.92-10.16-2.65,4.1-4.54,8-6,12.39Z"/>
      <path class="cls-1" d="M9.23,176.73c6.51.74,12.92-.04,19.34-.18,4-.09,2.4,3.73,2.32,7.45-3.35-6.35-8.15-4.61-12.5-4.58-.93,0-1.78.77-1.82,1.92-.11,3.29-.48,6.64-.09,9.87.34,2.9,6.05,3.81,9.28,1.71,1.07-.7,1.68-1.83,2.54-4.2.22,2.9.43,4.48.45,6.06.01,1.62-.17,3.24-.27,4.92-1.49-.11-1.35-1.68-2.16-2.26-2.66-1.9-5.77-1.86-8.51-1.08-2.93.84-1.09,3.96-1.31,6.03-.43,4.01-1.09,8.28,3.44,10.95h-10.15c3.66-5.88,3.18-31.93-.54-36.61Z"/>
      <path class="cls-1" d="M212.96,184.18c-.55-4.14-.47-7.52,4.49-7.49,7.22.05,14.44.05,21.66.05,3.77,0,5.24,1.81,4.12,5.93-3.23-3.65-7.24-2.88-11.12-2.63-2.23.14-2.04,2.06-2.04,3.69.02,6.91.04,13.81.13,20.72.04,3.17.17,6.37,3.92,8.25-3.95,1.44-7.31,1.22-12.04.21,4.62-1.86,4.36-5.14,4.23-8.42-.27-6.75-.65-13.49.07-20.24.39-3.65-.85-5.07-4.53-4.41-3.36.6-7.13-.35-8.89,4.33Z"/>
      <path class="cls-1" d="M259.15,213.43h-10.84c2.54-12.11,4.02-24.16-.35-36.68,2.32-.04,5.37-.83,8.78.12-4.53,5.81-2.04,12.5-2.07,18.72-.03,5.94-2.91,12.9,4.48,17.83Z"/>
      <path class="cls-1" d="M327.76,142.46c.09.19.18.38.27.57-.08-.21-.16-.42-.23-.63,0,0-.04.06-.04.06Z"/>
      <path class="cls-1" d="M7.97,129.51c-.05.28-.1.57-.15.85.07-.26.15-.52.22-.79,0,0-.06-.07-.06-.07Z"/>
      <polygon class="cls-1" points="68.51 42.42 68.6 42.16 68.46 42.36 68.51 42.42"/>
      <polygon class="cls-1" points="280.35 54.23 280.47 54.35 280.34 54.23 280.35 54.23"/>
      <path class="cls-1" d="M244.04,121.63c-.02.24-.03.48-.05.72-.17-.07-.35-.15-.52-.22.22-.14.44-.28.66-.42,0,0-.09-.07-.09-.07Z"/>
      <polygon class="cls-1" points="16.4 103.81 16.29 103.95 16.38 103.82 16.4 103.81"/>
      <path class="cls-1" d="M37.78,86.99c-.13-.17-.25-.33-.38-.5.09.05.23.07.26.15.05.12.04.28.05.42,0,0,.07-.07.07-.07Z"/>
      <path class="cls-1" d="M254.39,75.11c.02-.24.05-.47.07-.71.81.46,0,.46-.16.64,0,0,.09.07.09.07Z"/>
      <path class="cls-1" d="M52.49,246.48c.24,2.68-.15,5.29-.96,7.81-.59,1.81-1.74,3.13-3.7,3.26-1.99.13-3.3-1.05-3.91-2.87-1.84-5.47-1.78-11.01,0-16.48.62-1.89,2.02-2.89,3.95-2.77,1.73.1,2.9,1.13,3.5,2.8.96,2.65,1.31,5.42,1.11,8.27Z"/>
    </g>
  </g>
</svg>