<?xml version="1.0" encoding="UTF-8"?>
<svg id="Layer_2" data-name="Layer 2" xmlns="http://www.w3.org/2000/svg" viewBox="0 0 273.34199 329.34648">
  <defs>
    <style>
      .cls-1 {
        fill: #fff2f1;
        stroke-width: 0px;
      }
    </style>
  </defs>
  <g id="Layer_1-2" data-name="Layer 1">
    <g>
      <path class="cls-1" d="M271.96527,296.64771c-4.27163,16.36805-20.71917,30.40408-37.66391,31.90598-74.47251.96126-148.9887.28573-223.45997.77599-3.76623.12777-8.64164-.39902-9.76855-4.17192-9.63247-39.28017,48.79764,2.00621,47.68327-55.51724.3392-67.50373-.02914-135.04756.19383-202.55798-.8722-13.51929,1.75129-29.22-7.15368-40.51518C33.19637,14.03512,2.92581,21.88399,4.70931,7.19127,4.96291,1.1619,11.41298.01465,16.53163.24597c18.97776-.11052,37.97278-.19531,56.96305-.24597,17.24557.04666,34.44938.25271,51.71407.17338,4.83779-.09301,11.5827.01025,12.69686,5.81658,1.57158,6.48477-3.25026,10.46593-9.54609,10.90679-19.64649,1.4849-37.73256,7.39305-38.35753,30.3021-2.11664,73.19481-.46884,146.62574-.74342,219.82895,1.78345,19.77754,12.039,32.17399,32.86173,31.572,25.93819.81168,52.36824,2.6569,78.02168-2.1573,9.48567-3.18726,3.47961-13.68519.67646-19.81047-5.21687-12.5222-11.14855-24.24967-14.94322-37.16562-7.93504-36.81645.126-75.38214,21.77512-106.17388,1.04981-2.16134,11.94286-14.87574,6.66995-9.32991-22.77691,21.72129-36.01512,51.74378-38.39656,82.96607,1.9504,33.20376-10.81122,21.48455-23.35124,2.14374-16.42389-26.79288-7.29911-61.68134,14.87829-82.1876,13.09787-12.91176,28.40661-24.0987,45.90055-30.09259,5.21622-1.55106,74.58434-32.03479,57.20271-12.64441-39.72301,51.0132-1.62384,116.96855-43.80148,142.83721-6.42093,5.97159-24.02778,5.79012-25.88509,14.56604,2.10117,16.65382,15.46669,29.56039,28.88659,38.7412,17.12345,12.75201,44.03194,6.34095,42.22475,16.19389l-.01357.16153Z"/>
      <path class="cls-1" d="M101.30108,269.3512c-.27425.76597-.94495,1.05327-1.42514.21594-.17114-.3652-.27222-.89554-.03645-.9183.13458-.02775,1.34514.36013,1.46651.58801l-.00492.11435Z"/>
    </g>
  </g>
</svg>