<?xml version="1.0" encoding="UTF-8"?>
<svg id="Layer_2" data-name="Layer 2" xmlns="http://www.w3.org/2000/svg" viewBox="0 0 452.2027 292.60046">
  <defs>
    <style>
      .cls-1 {
        fill: #fff2f1;
        stroke-width: 0px;
      }
    </style>
  </defs>
  <g id="Layer_1-2" data-name="Layer 1">
    <g>
      <path class="cls-1" d="M100.93582,160.76014L0,284.94522l10.77405,1.70117c5.67055,1.13411,25.51748,2.83528,43.94677,3.96939l33.45625,1.98469-1.98469-17.29518-1.70117-17.01165,74.28423-90.16177c41.1115-49.61733,106.8899-128.72152,108.59106-130.70621,1.98469-2.55175-1.98469-7.93877-15.31049-20.41399C242.13255,7.65524,233.62672,0,233.3432,0c0,0-76.83597,92.71352-132.40738,160.76014Z"/>
      <path class="cls-1" d="M263.39713,73.43364l-12.47521,11.05758,54.15377,60.6749c3.1188,3.40233,26.65159,31.18803,52.16907,61.24196l45.93147,55.00435-1.41764,11.90816-1.70117,12.19169,23.24926-1.41764c12.75874-.85058,25.51748-2.26822,28.06923-3.1188,4.25291-1.41764-6.80466-16.72813-58.97374-81.08889-35.15742-43.66325-113.1275-134.39207-114.26161-135.52618s-7.93877,2.83528-14.74343,9.07288Z"/>
      <g>
        <path class="cls-1" d="M223.65936,171.06136v16.2384h-30.85298l1.42088-5.68354c2.0298-8.93092,10.149-19.68896,17.45623-23.3427,11.56988-5.68354,11.97587-5.0745,11.97587,12.78784Z"/>
        <path class="cls-1" d="M215.13418,195.21578l8.52518.20318v32.4768h-30.447v-15.83254c0-8.72824.40598-16.44108,1.0149-16.84744.40598-.60854,3.45068-.81172,6.49538-.60854,3.0447.20268,9.54008.60854,14.41153.60854Z"/>
        <path class="cls-1" d="M249.03186,187.29976h-15.2235v-32.88266l5.48048,1.42076c8.52518,2.0298,16.64438,8.72824,20.90691,17.2533,6.90137,13.39688,6.0894,14.2086-11.1639,14.2086Z"/>
        <path class="cls-1" d="M264.25536,195.41896v32.4768h-30.447v-17.05012c0-15.2235.40598-17.05062,3.65362-16.44158,1.82687.40586,8.72812.81172,15.2235.81172l11.56988.20318Z"/>
      </g>
    </g>
  </g>
</svg>