<?xml version="1.0" encoding="UTF-8"?>
<svg id="Layer_2" data-name="Layer 2" xmlns="http://www.w3.org/2000/svg" viewBox="0 0 280.63712 319.7211">
  <defs>
    <style>
      .cls-1 {
        fill: #fff2f1;
        stroke-width: 0px;
      }
    </style>
  </defs>
  <g id="Layer_1-2" data-name="Layer 1">
    <g>
      <path class="cls-1" d="M176.92165,282.20108c-.97998,2.07007-2.83008,3.02002-5.15991,3.02002-20.42017-.01001-40.84009-.01001-61.25,0-1.43005,0-2.70007-.33008-3.69006-1.42993-2.54004-.99023-3.60999-3.05005-3.34998-5.56006.26001-2.54004,1.84998-4.25,4.48999-4.72998,3.47998-.1001,6.94995-.27002,10.42993-.26001,17.93005.03979,35.86011.11987,53.79004.18994,1.63.38013,3.04004,1.07007,3.83008,2.6499,1.97998,1.79004,1.90991,3.98999.90991,6.12012Z"/>
      <path class="cls-1" d="M168.03163,316.871c-.98999,2.12012-2.92004,2.8501-5.20996,2.8501-14.01001-.03003-28.01001-.02002-42.02002-.01001-1.52991,0-2.93005-.27002-3.98999-1.5-4.51001-3.56006-4.22009-7.56006.69006-9.79004.90991-.91992,2.06995-.70996,3.16992-.70996,13.41992-.01001,26.8501-.01001,40.27002.01001,1.09998,0,2.27002-.22998,3.16992.69995,1.47009-.04004,2.25.92993,2.96008,2.02002,2.07996,1.87988,2.0199,4.16992.95996,6.42993Z"/>
      <path class="cls-1" d="M176.93166,299.43106c-1.03003,2.22998-2.98999,3.06006-5.48999,3.06006-20.12-.05005-40.25-.04004-60.38-.01001-1.41003,0-2.71008-.2002-3.88-1-2.52002-1.26001-4.07007-3.26001-3.69995-6.1001.32996-2.46997,1.83997-4.20996,4.51001-4.56982.72998-.11011,1.45996-.33008,2.18994-.33008,20.05005-.01001,40.09998-.01001,60.15002,0,.60999,0,1.21997.17993,1.82996.27002,1.65002.31006,3.05005,1,3.8501,2.57983,1.98999,1.77002,1.8999,3.98022.91992,6.1001Z"/>
      <path class="cls-1" d="M269.86159,172.78092c-2.41992-1.10986-3.22998-2.35986-3.21997-4.98975.12012-19.47998.13013-38.97021,0-58.46021-.02002-2.80005.86011-4.07007,3.38013-5.23999,9.03992-4.19995,12.7699-13.87988,9.2699-23.19995-3.2699-8.71997-13.01001-13.54004-22.2699-10.6499-2.39014.73999-3.59009.1499-5.13013-1.40015-12.65991-12.76001-25.34998-25.47998-38.09998-38.1499-1.5-1.48999-1.94006-2.58008-.96997-4.73999,3.92004-8.69995.84998-18.47998-6.96008-23.19019-8.06995-4.85986-17.6499-3.16992-23.70996,4.48022-1.70996,2.15991-3.46997,2.70996-6.02002,2.69995-23.56995-.08008-47.12988-.11011-70.68994.01001-3.57007.02002-6.05005-.69019-8.55005-3.69019-5.95996-7.15991-15.44995-8.13989-23.27002-3.13989-7.45996,4.78003-10.3999,14.42017-6.53992,22.67017,1.12,2.3999.80994,3.61987-.96008,5.36987-12.07996,11.92993-24.06995,23.93994-35.98999,36.02002-1.69995,1.72998-2.98999,2.20996-5.41992,1.19995-9.06006-3.76001-19.43994.73999-23.23999,9.75-3.8501,9.14014.07996,19.53003,9.1499,23.51001,2.3501,1.03003,3.01001,2.22998,3,4.68994-.10986,19.73022-.09985,39.46997-.01001,59.21021.01001,2.50977-.38989,4.19995-3.10986,5.0498-2.12012.66016-3.91016,2.13013-5.46008,3.80005-5.65002,6.07007-6.65002,15.29004-2.39001,22.13013,4.5,7.23975,13.23999,10.45996,21.44995,7.58984,2.26001-.79004,3.57007-.42993,5.18005,1.2002,12.28003,12.41992,24.59998,24.7998,37.04004,37.06982,1.85999,1.84009,2.0199,3.16016.81995,5.41016-1.46997,2.75-2.13989,5.86987-1.69995,9.03979,1.09998,8.08008,6.23999,14.44019,13.60999,16.04004,7.83997,1.70996,14.63-.53003,19.38-7.25,1.32007-1.86011,2.68994-2.15991,4.65002-2.1499,11.71997.05005,23.44006.03003,35.15002.03003,11.59998-.01001,23.18994.0498,34.78003-.05005,2.44995-.03003,3.96997.62988,5.52991,2.70996,5.45007,7.28003,14.93005,9.32007,22.71008,5.29004,7.92993-4.11011,11.72998-12.83008,9-21.51001-.72009-2.31006-.33008-3.6001,1.27002-5.18018,12.75989-12.6499,25.5-25.33984,38.10986-38.12988,1.80005-1.83008,3.05005-1.94995,5.3501-.91992,9.28003,4.15991,19.83997.15991,23.92993-8.80005,4.25-9.31006.42993-19.81006-9.05005-24.13013ZM93.2217,239.74112c-5.21997-2.59009-10.58008-3.61011-16.17004-1.29004-1.46997.59985-2.31995-.02002-3.26001-.96997-12.94006-12.98999-25.89001-25.97998-38.87-38.93994-1.03003-1.02002-1.15991-1.84009-.55005-3.25,4.8501-11.29004-.18994-21.83008-10.1499-25.47021-1.70996-.61987-2.28003-1.45996-2.27002-3.22998.05005-20.35986.05005-40.71997,0-61.08008,0-1.78979.65991-2.56982,2.30005-3.23975,10.44995-4.25,14.60986-13.88013,10.44995-24.34009-.69995-1.75-.36011-2.65991.82996-3.84009,12.63-12.59985,25.24011-25.22998,37.81995-37.87988,1.18005-1.2002,2.16016-1.46997,3.91016-.91992,11.59985,3.66992,21.56995-2.14014,24.15991-14.07007.48999-2.25,1.27002-2.94019,3.58008-2.92993,23.30994.07983,46.61987.06982,69.92993.02002,2.10999-.01025,3.31006.1499,3.56006,2.80981.23999,2.40015,1.53003,4.69995,2.35986,7.04004-7.82983,7.33008-15.62988,14.68994-23.47998,22-15.13989,14.13013-30.32996,28.20996-45.41992,42.38989-1.64001,1.54004-2.87,1.88013-4.83008.65015-2.03003-1.28003-4.36987-1.71997-6.81995-1.15991-4.97998,1.11987-8.17004,4.08984-9.29993,9.07983-1,4.42993.3999,8.19019,3.84985,11,3.79004,3.09009,8.05005,3.86011,12.52002,1.51001,1.57007-.83008,2.71997-1.06006,4.3501.11011,13.75,9.8999,27.55994,19.69995,41.3999,29.45996,1.30005.90991,1.83008,1.61987,1.22998,3.27002-1.32983,3.66992-.61987,7.19995,1.73999,10.20996,1.11011,1.40991.89014,2.22998-.11987,3.45996-3,3.65991-5.91003,7.40015-8.84009,11.13013-17.96997,22.81982-35.93994,45.6499-53.90991,68.46997ZM258.27175,168.49112c.00989,2.03979-.58008,3.01001-2.51001,3.87988-9.76001,4.36011-13.4801,12.95996-10.23999,23.37012.47998,1.53003.25,2.44995-.86011,3.55981-13.17993,13.13013-26.31006,26.30005-39.42993,39.47998-1.04004,1.04004-1.80005,1.54004-3.48999.79004-12.90015-5.7998-23.8501-.19995-26.54004,13.54004-.5,2.54004-2.17004,1.96997-3.66003,1.96997-13.20996.04004-26.43005.02002-39.65002.02002-8.84998,0-17.69995-.09009-26.55005.06006-2.3999.05005-3.72998-.47998-3.97998-3.02002-.31995-3.32983-2.06995-6.06006-3.85986-8.77002.42993-.43994.90991-.82983,1.28992-1.32007,20.45007-25.92993,40.90002-51.84985,61.29004-77.81982,1.47998-1.89014,2.85999-2.86011,5.47998-2.84009,4.73999.02002,8.27002-2.57983,10.16003-6.94995,1.96997-4.56006,1.12988-8.82007-2.30005-12.41992-3.30005-3.45996-7.38-4.76025-11.85999-2.90015-2.23999.92993-3.65002.40991-5.39001-.84009-13.23999-9.52979-26.52002-18.97998-39.79004-28.46973-4.04993-2.89014-4.45996-9.26025-.77002-12.7002,23.08008-21.47998,46.18005-42.94995,69.27002-64.41992,5.75,3.71997,11.83008,5,18.38013,2.3999,1.59985-.63989,2.5199.02002,3.56995,1.07007,12.94006,13.01001,25.88,26.01001,38.90002,38.93994,1.43994,1.42993,1.36987,2.46997.56995,4.17993-4.77991,10.25-.98999,20.57007,9.26001,25.18018,1.93005.86987,2.73999,1.81982,2.71997,4.06006-.09998,19.98975-.07996,39.97998-.00989,59.96997Z"/>
    </g>
  </g>
</svg>